# xmcd
#
# Track frame offsets:
#	150
#	15282
#	29487
#	43993
#	58875
#
# Disc length: 918 seconds
# Revision: 0
# Processed by: cddbd v1.5.2PL0 Copyright (c) Steve Scherf et al.
# Submitted via: dBpowerAMP V12.0
#
DISCID=3d039405
DTITLE=Thomas, Hannah - Carousel On Fire
DYEAR=2015
DGENRE=Country
TTITLE0=Lie To ME
TTITLE1=Drinkin' Alone
TTITLE2=God Help My Mama (I Turned Out Like My Dad)
TTITLE3=Wild Horses
TTITLE4=Let It Rain
EXTD=
EXTT0=
EXTT1=
EXTT2=
EXTT3=
EXTT4=
PLAYORDER=
